<?xml version="1.0" encoding="UTF-8"?>
<svg width="902px" height="494px" viewBox="0 0 902 494" version="1.1" xmlns="http://www.w3.org/2000/svg" xmlns:xlink="http://www.w3.org/1999/xlink">
    <title>X100VI</title>
    <g id="Page-1" stroke="none" stroke-width="1" fill="none" fill-rule="evenodd">
        <g id="Group-2" transform="translate(0.270598, 0.000000)">
            <!-- Right side dial -->
            <path d="M880.824017,98.5 C892.145854,98.5 901.324017,107.678163 901.324017,119 C901.324017,130.206308 892.332208,139.312467 881.169927,139.49714 L880.824017,139.5 L856.594615,139.5 L856.594615,98.5 L880.824017,98.5 Z M880.824017,109.5 C875.577312,109.5 871.324017,113.753295 871.324017,119 C871.324017,124.246705 875.577312,128.5 880.824017,128.5 C886.070722,128.5 890.324017,124.246705 890.324017,119 C890.324017,113.753295 886.070722,109.5 880.824017,109.5 Z" fill="#2a2a2a"></path>
            <!-- Hot shoe / viewfinder hump -->
            <path d="M198.229402,4.1177049 C199.886256,4.1177049 201.229402,5.46085066 201.229402,7.1177049 L201.22921,9.9997049 L215.135699,10 C218.286411,10 220.900419,12.4369975 221.120979,15.5799803 L222.278874,32.0799803 C222.473732,34.8567112 220.746741,37.3245004 218.229839,38.1805507 L218.229402,47.5 L133.229402,47.5 L133.229757,37.0291604 C131.964854,35.9291294 131.16521,34.3079481 131.16521,32.5 C131.16521,32.3598645 131.170119,32.219772 131.179929,32.0799803 L132.337824,15.5799803 C132.558384,12.4369975 135.172393,10 138.323105,10 L152.22921,9.9997049 L152.229402,7.1177049 C152.229402,5.46085066 153.572547,4.1177049 155.229402,4.1177049 L198.229402,4.1177049 Z" fill="#2a2a2a"></path>
            <!-- Top plate left section -->
            <path d="M235.918702,34 C234.996009,34 234.101689,33.6810089 233.387277,33.0970769 L228.197976,28.8555528 C227.268526,28.0958577 226.729402,26.9588987 226.729402,25.7584759 L226.729402,11.7426969 C226.729402,10.6852786 227.148102,9.67088006 227.893947,8.92131471 L233.608143,3.1786178 C234.358853,2.42416395 235.379283,2 236.443598,2 L362.229402,2 C364.438541,2 366.229402,3.790861 366.229402,6 L366.229402,30 C366.229402,32.209139 364.438541,34 362.229402,34 L340.729402,34 L340.729402,43 L233.729402,43 L233.729402,34 L235.918702,34 Z" fill="#2a2a2a"></path>
            <!-- Top plate right section (silver) -->
            <path d="M49.1002886,38.5 C48.3750648,38.5 47.6634853,38.3028339 47.0416792,37.9295958 L42.1707923,35.0058536 C40.966326,34.2828747 40.2294017,32.9810489 40.2294017,31.5762579 L40.2294017,22.9616059 C40.2294017,21.6917332 40.8323774,20.4973003 41.854112,19.7432214 L47.2218662,15.7816155 C47.9097535,15.2739286 48.7422085,15 49.5971559,15 L175.729402,15 C177.938541,15 179.729402,16.790861 179.729402,19 L179.729402,34.5 C179.729402,36.709139 177.938541,38.5 175.729402,38.5 L157.229402,38.5 L157.229402,47.5 L50.2294017,47.5 L50.2294017,38.5 L49.1002886,38.5 Z" fill="#3a3a3a"></path>
            <!-- Left dial -->
            <path d="M24.2294017,98.5 C35.5512391,98.5 44.7294017,107.678163 44.7294017,119 C44.7294017,130.206308 35.7375929,139.312467 24.5753115,139.49714 L24.2294017,139.5 L5.68434189e-14,139.5 L5.68434189e-14,98.5 L24.2294017,98.5 Z M24.2294017,109.5 C18.9826966,109.5 14.7294017,113.753295 14.7294017,119 C14.7294017,124.246705 18.9826966,128.5 24.2294017,128.5 C29.4761069,128.5 33.7294017,124.246705 33.7294017,119 C33.7294017,113.753295 29.4761069,109.5 24.2294017,109.5 Z" fill="#2a2a2a" transform="translate(22.364701, 119.000000) scale(-1, 1) translate(-22.364701, -119.000000) "></path>
            <!-- Main body -->
            <path d="M37.7294017,40.2148438 L316.915108,40.2148438 C325.037466,40.2148438 332.693152,36.4190335 337.61003,29.9539731 L353.787815,8.68227519 C357.948251,3.21183941 364.426139,2.13162821e-14 371.298903,0 L861.729402,0 C865.595395,-8.8817842e-16 868.729402,3.13400675 868.729402,7 L868.729402,487 C868.729402,490.865993 865.595395,494 861.729402,494 L37.7294017,494 C33.8634085,494 30.7294017,490.865993 30.7294017,487 L30.7294017,47.2148437 C30.7294017,43.3488505 33.8634085,40.2148437 37.7294017,40.2148438 Z" fill="#3a3a3a"></path>
            <!-- Screen area (dark) -->
            <path d="M868.729,142 L868.729,473 L30.729,473 L30.729,142 L868.729,142 Z" fill="#0a0a0a"></path>
            <!-- Flash indicator -->
            <circle fill="#555" cx="603.729402" cy="47.5" r="6"></circle>
            <!-- Shutter speed dial housing -->
            <rect fill="#2a2a2a" x="128.729402" y="81" width="94" height="25" rx="7"></rect>
            <!-- Shutter speed dial face -->
            <rect fill="#555" x="133.229402" y="84" width="85" height="19" rx="3"></rect>
            <!-- Viewfinder ring (outer) -->
            <circle fill="#333" cx="300.729402" cy="100.561525" r="28.5"></circle>
            <!-- ISO dial housing -->
            <rect fill="#2a2a2a" x="429.729402" y="34" width="107" height="27" rx="5"></rect>
            <!-- ISO dial face -->
            <rect fill="#555" x="438.229402" y="34" width="90" height="27"></rect>
            <!-- Aperture ring (outer) -->
            <circle fill="#2a2a2a" cx="386.729402" cy="47.5" r="16.1021669"></circle>
            <!-- Aperture ring blades -->
            <path d="M386.729402,31.3978331 C390.982954,31.3978331 394.851295,33.0471153 397.729815,35.7410687 L397.729815,59.2589313 C394.851295,61.9528847 390.982954,63.6021669 386.729402,63.6021669 C382.476258,63.6021669 378.608252,61.9532017 375.729818,59.259708 L375.729818,35.740292 C378.608252,33.0467983 382.476258,31.3978331 386.729402,31.3978331 Z" fill="#555"></path>
            <!-- Left grip texture -->
            <path d="M312.018662,291.1024 C312.124047,277.300227 314.653304,261.705309 319.60643,244.317644 C320.502393,241.17242 323.222523,238.889225 326.475441,238.552008 L326.475441,238.552008 L327.041034,238.489992 C336.61287,237.382563 343.979124,233.567399 349.139796,227.0445 C355.299818,219.258461 355.299818,240.910294 349.139796,292 L349.139796,292 C355.299818,343.089706 355.299818,364.741539 349.139796,356.9555 C343.979124,350.432601 336.61287,346.617437 327.041034,345.510008 L326.475441,345.447992 C323.222523,345.110775 320.502393,342.82758 319.60643,339.682356 C314.545627,321.916699 312.015225,306.02258 312.015225,292 Z" fill="#555"></path>
            <!-- Right grip texture -->
            <path d="M692.435513,291.1024 C692.540899,277.300227 695.070155,261.705309 700.023282,244.317644 C700.919244,241.17242 703.639375,238.889225 706.892292,238.552008 L706.892292,238.552008 L707.457886,238.489992 C717.029722,237.382563 724.395976,233.567399 729.556648,227.0445 C735.716669,219.258461 735.716669,240.910294 729.556648,292 L729.556648,292 C735.716669,343.089706 735.716669,364.741539 729.556648,356.9555 C724.395976,350.432601 717.029722,346.617437 707.457886,345.510008 L706.892292,345.447992 C703.639375,345.110775 700.919244,342.82758 700.023282,339.682356 C694.962479,321.916699 692.432077,306.02258 692.432077,292 Z" fill="#555" transform="translate(713.304370, 292.000000) scale(-1, 1) translate(-713.304370, -292.000000) "></path>
            <!-- Lens outer ring -->
            <circle fill="#555" cx="522.729402" cy="292" r="190.574969"></circle>
            <!-- Lens middle ring -->
            <circle fill="#3a3a3a" cx="522.729402" cy="292" r="163"></circle>
            <!-- Lens inner ring -->
            <circle fill="#2a2a2a" cx="522.729402" cy="292" r="87"></circle>
            <!-- Lens element (dark center) -->
            <circle fill="#111" cx="522.729402" cy="292" r="39"></circle>
            <!-- Lens amber accent ring -->
            <circle fill="none" stroke="#c45a30" stroke-width="2" cx="522.729402" cy="292" r="55"></circle>
            <!-- Viewfinder assembly -->
            <path d="M307.372313,43 C310.133737,43 312.372313,45.2385763 312.372313,48 L312.372565,65.4734699 C327.079828,70.3512389 337.68876,84.2174574 337.68876,100.561525 C337.68876,120.973614 321.141491,137.520882 300.729402,137.520882 C280.317312,137.520882 263.770044,120.973614 263.770044,100.561525 C263.770044,84.2174574 274.378976,70.3512389 289.086238,65.4734699 L289.08649,48 C289.08649,45.2385763 291.325066,43 294.08649,43 L307.372313,43 Z" fill="#555"></path>
            <!-- Right side grip detail -->
            <path d="M869.779507,240.679622 L870.527233,241.001351 C870.710721,241.080301 870.829612,241.260886 870.829612,241.460639 L870.829612,246.159026 C870.829612,246.238163 870.810828,246.316169 870.774804,246.38663 L869.834314,248.226228 C869.798291,248.296689 869.779507,248.374695 869.779507,248.453831 L869.779507,261.85128 C869.779507,262.127423 870.003364,262.35128 870.279507,262.35128 L870.963959,262.35128 C871.240101,262.35128 871.463959,262.575138 871.463959,262.85128 L871.463959,266.191373 C871.463959,266.467515 871.240101,266.691373 870.963959,266.691373 L870.59668,266.691373 C870.320538,266.691373 870.09668,266.91523 870.09668,267.191373 L870.09668,268.481427 C870.09668,268.757569 870.320538,268.981427 870.59668,268.981427 L870.963959,268.981427 C871.240101,268.981427 871.463959,269.205284 871.463959,269.481427 L871.463959,271.328364 C871.463959,271.604506 871.240101,271.828364 870.963959,271.828364 L870.279507,271.828364 C870.003364,271.828364 869.779507,272.052221 869.779507,272.328364 L869.779507,273.248758 C869.779507,273.492071 869.954656,273.700059 870.19442,273.741465 L870.994291,273.879596 C871.25724,273.925005 871.438193,274.168895 871.405419,274.433715 L871.134669,276.6214 C871.103669,276.871883 870.890849,277.059988 870.638455,277.059988 L870.279507,277.059988 C870.003364,277.059988 869.779507,277.283845 869.779507,277.559988 L869.779507,278.554316 C869.779507,278.830459 870.003364,279.054316 870.279507,279.054316 L870.963959,279.054316 C871.240101,279.054316 871.463959,279.278174 871.463959,279.554316 L871.463959,281.695326 C871.463959,281.971469 871.240101,282.195326 870.963959,282.195326 C870.926793,282.195326 870.889743,282.191183 870.853496,282.182972 L870.389969,282.077973 C870.12065,282.016966 869.852868,282.185836 869.791861,282.455155 C869.783651,282.491403 869.779507,282.528452 869.779507,282.565618 L869.779507,283.624884 C869.779507,283.901027 870.003364,284.124884 870.279507,284.124884 L870.963959,284.124884 C871.240101,284.124884 871.463959,284.348742 871.463959,284.624884 L871.463959,286.637668 C871.463959,286.913811 871.240101,287.137668 870.963959,287.137668 L870.279507,287.137668 C870.003364,287.137668 869.779507,287.361526 869.779507,287.637668 L869.779507,289.089892 C869.779507,289.215332 869.826657,289.336189 869.911604,289.428488 L874.54336,294.46114 C874.628307,294.553439 874.675457,294.674296 874.675457,294.799736 L874.675457,300.701634 C874.675457,300.878718 874.58179,301.042592 874.429205,301.132461 L873.446827,301.711059 C873.268859,301.815877 873.173658,302.019336 873.20722,302.223133 L873.53404,304.207684 C873.578096,304.475204 873.830679,304.656358 874.098199,304.612302 C874.115357,304.609476 874.132352,304.605741 874.149114,304.601112 C874.370406,304.539997 874.599342,304.669846 874.660458,304.891138 C874.670412,304.927182 874.675457,304.964404 874.675457,305.001797 L874.675457,310.804926 C874.675457,310.920474 874.635438,311.032455 874.562203,311.121829 L869.892761,316.820372 C869.819526,316.909747 869.779507,317.021728 869.779507,317.137275 L869.779507,317.988522 C869.779507,318.220223 869.938692,318.42157 870.164141,318.47503 L871.079324,318.692047 C871.304774,318.745508 871.463959,318.946855 871.463959,319.178556 L871.463959,321.448113 C871.463959,321.698213 871.279164,321.909844 871.031345,321.943551 L870.212121,322.054975 C869.964302,322.088682 869.779507,322.300313 869.779507,322.550414 L869.779507,323.638697 C869.779507,323.883394 869.956605,324.092141 870.198031,324.132014 L871.045434,324.27197 C871.286861,324.311843 871.463959,324.52059 871.463959,324.765287 L871.463959,326.163903 C871.463959,326.393978 871.306954,326.594355 871.083558,326.649389 L870.159908,326.876929 C869.936512,326.931963 869.779507,327.13234 869.779507,327.362415 L869.779507,328.481167 C869.779507,328.72718 869.958467,328.93664 870.201465,328.975039 L871.080745,329.113983 C871.306258,329.149619 871.478989,329.333487 871.500483,329.560784 L871.66226,331.271584 C871.685399,331.516286 871.527253,331.741515 871.289234,331.802842 L870.154754,332.095147 C869.933873,332.152058 869.779507,332.351239 869.779507,332.579333 L869.779507,333.621904 C869.779507,333.852049 869.936605,334.052468 870.160089,334.107434 L871.016382,334.318042 C871.269243,334.380234 871.43204,334.626086 871.390589,334.883163 L871.137328,336.453889 C871.103277,336.665075 870.938653,336.831204 870.727787,336.867178 L870.195423,336.957997 C869.955196,336.998979 869.779507,337.207179 869.779507,337.450876 L869.779507,338.573901 C869.779507,338.809632 869.944155,339.013342 870.174644,339.062781 L871.275435,339.298896 C871.52002,339.351359 871.688198,339.576499 871.669116,339.825918 L871.482978,342.258876 C871.471002,342.415413 871.386197,342.557237 871.253965,342.641867 L870.009976,343.438035 C869.866378,343.529939 869.779507,343.688679 869.779507,343.859168 L869.779507,358.387598 C869.779507,358.607394 869.923045,358.801415 870.133223,358.86572 L870.475895,358.970562 C870.686074,359.034867 870.829612,359.228888 870.829612,359.448684 L870.829612,364.993534 C870.829612,365.136354 870.768537,365.272357 870.661791,365.367241 L869.539606,366.364723 C868.816647,367.007351 867.88531,367.36623 866.918064,367.374909 C864.172444,367.399545 862.130879,367.092603 860.793368,366.454083 C860.793368,366.454083 860.793368,366.454083 860.793368,366.454083 C856.752958,364.525214 854.171017,360.456119 854.146639,355.97897 L853.574802,250.904308 C853.561247,248.413575 854.580508,246.028599 856.39001,244.316981 L856.655631,244.065729 C858.666833,242.163322 861.251733,240.980972 864.006203,240.703529 L867.59197,240.342354 C868.337958,240.267214 869.090793,240.383284 869.779507,240.679622 Z" fill="#0a0a0a"></path>
            <!-- Lens housing -->
            <rect fill="#2a2a2a" x="656.229402" y="22.5" width="146.5" height="101.5" rx="8"></rect>
            <!-- Lens barrel window -->
            <path d="M736.797542,51.998811 C744.456671,55.9960417 749.685216,64.0124248 749.685216,73.25 C749.685216,82.4867709 744.457581,90.5025624 736.799542,94.5001448 L714.660078,94.5005714 C707.001594,90.5031327 701.773588,82.4870995 701.773588,73.25 C701.773588,64.0124971 707.002051,55.9961672 714.661082,51.9989049 Z" fill="#3a3a3a"></path>
            <!-- Amber accent — shutter button ring -->
            <circle fill="none" stroke="#c45a30" stroke-width="2.5" cx="603.729402" cy="47.5" r="10"></circle>
        </g>
    </g>
</svg>